<?xml version="1.0" encoding="UTF-8" standalone="no"?>
<!-- Created with Inkscape (http://www.inkscape.org/) -->

<svg
   width="90.571495mm"
   height="90.57148mm"
   viewBox="0 0 90.571495 90.57148"
   version="1.1"
   id="svg1"
   xmlns="http://www.w3.org/2000/svg"
   xmlns:svg="http://www.w3.org/2000/svg">
  <defs
     id="defs1" />
  <g
     id="layer2"
     transform="translate(-52.070703,-44.398829)">
    <path
       id="rect2-0"
       style="opacity:0.98;fill:#f6f89d;fill-opacity:1;stroke:#ffc077;stroke-width:1.8;stroke-opacity:1"
       d="m 90.416016,45.298828 c -2.732179,0 -4.933594,2.199461 -4.933594,4.931641 V 77.8125 H 57.902344 c -2.73218,0 -4.931641,2.199462 -4.931641,4.931641 V 96.625 c 0,2.732184 2.199461,4.93164 4.931641,4.93164 h 27.580078 v 27.58203 c 0,2.73218 2.201415,4.93164 4.933594,4.93164 h 13.880864 c 2.73218,0 4.93164,-2.19946 4.93164,-4.93164 v -27.58203 h 27.58203 c 2.73218,0 4.93164,-2.199456 4.93164,-4.93164 V 82.744141 c 0,-2.732179 -2.19946,-4.931641 -4.93164,-4.931641 H 109.22852 V 50.230469 c 0,-2.73218 -2.19947,-4.931641 -4.93164,-4.931641 z" />
  </g>
</svg>
